<svg width="59" height="10" viewBox="0 0 59 10" fill="none" xmlns="http://www.w3.org/2000/svg">
<path d="M12.83 3.2V5.7H13.72C14.0867 5.4 14.27 4.96 14.27 4.38C14.27 4.13333 14.22 3.9 14.12 3.68C14.0267 3.46 13.9133 3.3 13.78 3.2H12.83ZM11.48 9V2H14.19C14.6433 2.2 15 2.50667 15.26 2.92C15.5267 3.33333 15.66 3.81667 15.66 4.37C15.66 4.91667 15.5233 5.42333 15.25 5.89C14.9767 6.35667 14.5733 6.68667 14.04 6.88H12.83V9H11.48ZM18.3517 6.69H17.2817C17.1417 6.86333 17.0717 7.08 17.0717 7.34C17.0717 7.6 17.1451 7.80333 17.2917 7.95H18.3517V6.69ZM16.2017 3.89H18.6817C19.0817 4.13 19.3451 4.40667 19.4717 4.72C19.5984 5.02667 19.6617 5.44667 19.6617 5.98V7.48C19.6617 8.03333 19.6751 8.54 19.7017 9H18.5617L18.3817 8.64C18.1217 8.88 17.7551 9 17.2817 9H16.6517C16.0851 8.62667 15.8017 8.09 15.8017 7.39C15.8017 6.68333 16.0917 6.12667 16.6717 5.72H17.6117C17.8717 5.72 18.1151 5.8 18.3417 5.96V5.46C18.3417 5.2 18.2284 5.02667 18.0017 4.94H16.2017V3.89ZM22.243 9H21.193C20.8996 8.62667 20.6996 8.25333 20.593 7.88C20.4863 7.50667 20.433 7.04 20.433 6.48V3.89H21.763V6.58C21.763 7.18667 21.883 7.64333 22.123 7.95H23.053V3.89H24.383V9H23.333L23.153 8.64C22.8996 8.88 22.5963 9 22.243 9ZM25.7386 3.89H27.9486V4.94H26.3886L27.3386 6.35C27.7653 6.95667 28.0019 7.37333 28.0486 7.6C28.0753 7.70667 28.0886 7.81667 28.0886 7.93C28.0886 8.40333 27.9119 8.76 27.5586 9H25.0086V7.95H26.8386L25.7686 6.38C25.7219 6.30667 25.6486 6.20333 25.5486 6.07C25.4553 5.93667 25.3819 5.83 25.3286 5.75C25.2753 5.66333 25.2386 5.6 25.2186 5.56C25.1986 5.52 25.1719 5.47 25.1386 5.41C25.1053 5.34333 25.0819 5.28667 25.0686 5.24C25.0419 5.11333 25.0286 5.01 25.0286 4.93C25.0286 4.44333 25.2653 4.09667 25.7386 3.89ZM30.947 4.94H30.197C30.097 5.06 30.0137 5.22667 29.947 5.44C29.887 5.65333 29.857 5.86 29.857 6.06H31.287C31.3004 5.86 31.2737 5.65333 31.207 5.44C31.1404 5.22 31.0537 5.05333 30.947 4.94ZM32.307 7.95V9H29.767C29.3004 8.68667 28.9704 8.3 28.777 7.84C28.5904 7.37333 28.497 6.90333 28.497 6.43C28.497 5.33667 28.9104 4.49 29.737 3.89H31.357C31.8037 4.21667 32.107 4.56333 32.267 4.93C32.427 5.29667 32.507 5.66667 32.507 6.04C32.507 6.41333 32.477 6.73333 32.417 7H29.927C29.947 7.15333 30.0037 7.33 30.097 7.53C30.197 7.72333 30.3037 7.86333 30.417 7.95H32.307ZM33.868 2H36.268V3.2H34.348L34.318 3.26L35.918 6.18C36.2447 6.76667 36.408 7.21333 36.408 7.52C36.408 8.19333 36.1847 8.68667 35.738 9H33.088V7.84H35.158L35.188 7.78L33.388 4.55C33.128 4.08333 32.998 3.70333 32.998 3.41C32.998 2.71667 33.288 2.24667 33.868 2ZM37.1597 6.77V4.94H36.4697V3.89H37.1597V2.5H38.4897V3.89H39.3097V4.94H38.4897V7.09C38.4897 7.49667 38.5597 7.78333 38.6997 7.95H39.3097V9H37.8897C37.5364 8.67333 37.323 8.32 37.2497 7.94C37.1897 7.62 37.1597 7.23 37.1597 6.77ZM42.3361 6.69H41.2661C41.1261 6.86333 41.0561 7.08 41.0561 7.34C41.0561 7.6 41.1294 7.80333 41.2761 7.95H42.3361V6.69ZM40.1861 3.89H42.6661C43.0661 4.13 43.3294 4.40667 43.4561 4.72C43.5828 5.02667 43.6461 5.44667 43.6461 5.98V7.48C43.6461 8.03333 43.6594 8.54 43.6861 9H42.5461L42.3661 8.64C42.1061 8.88 41.7394 9 41.2661 9H40.6361C40.0694 8.62667 39.7861 8.09 39.7861 7.39C39.7861 6.68333 40.0761 6.12667 40.6561 5.72H41.5961C41.8561 5.72 42.0994 5.8 42.3261 5.96V5.46C42.3261 5.2 42.2128 5.02667 41.9861 4.94H40.1861V3.89ZM44.6499 6.77V4.94H43.9599V3.89H44.6499V2.5H45.9799V3.89H46.7999V4.94H45.9799V7.09C45.9799 7.49667 46.0499 7.78333 46.1899 7.95H46.7999V9H45.3799C45.0266 8.67333 44.8133 8.32 44.7399 7.94C44.6799 7.62 44.6499 7.23 44.6499 6.77ZM47.4652 9V3.89H48.7852V9H47.4652ZM47.4652 2H48.7852V3.35H47.4652V2ZM52.6829 9H50.5029C49.8362 8.38 49.5029 7.53333 49.5029 6.46C49.5029 5.92 49.5762 5.45 49.7229 5.05C49.8762 4.65 50.1162 4.26333 50.4429 3.89H52.7829C53.1296 4.29 53.3662 4.68 53.4929 5.06C53.6196 5.43333 53.6829 5.9 53.6829 6.46C53.6829 7.53333 53.3496 8.38 52.6829 9ZM51.2129 7.95H51.9729C52.2129 7.48333 52.3329 6.95333 52.3329 6.36C52.3329 5.76667 52.2096 5.29333 51.9629 4.94H51.2129C50.9729 5.28 50.8529 5.76333 50.8529 6.39C50.8529 7.01 50.9729 7.53 51.2129 7.95ZM56.6188 3.89H57.6788C57.9721 4.26333 58.1721 4.63667 58.2788 5.01C58.3854 5.38333 58.4388 5.85 58.4388 6.41V9H57.1088V6.31C57.1088 5.67667 57.0221 5.22 56.8488 4.94H55.7288V9H54.3988V3.89H55.4387L55.6188 4.25C55.7654 4.11667 55.9021 4.02333 56.0288 3.97C56.1621 3.91667 56.3588 3.89 56.6188 3.89Z" fill="white"/>
<g clip-path="url(#clip0_311_50)">
<path d="M4.99746 0.205664C4.72324 -0.0685547 4.27852 -0.0685547 4.00254 0.205664L0.205664 4.00254C-0.0685547 4.27676 -0.0685547 4.72148 0.205664 4.99746L4.00254 8.79434C4.27676 9.06855 4.72148 9.06855 4.99746 8.79434L8.79434 4.99746C9.06855 4.72324 9.06855 4.27852 8.79434 4.00254L4.99746 0.205664Z" fill="white"/>
</g>
<defs>
<clipPath id="clip0_311_50">
<rect width="9" height="9" fill="white"/>
</clipPath>
</defs>
</svg>
