<svg width="56" height="10" viewBox="0 0 56 10" fill="none" xmlns="http://www.w3.org/2000/svg">
<path d="M9.83 3.2V5.7H10.72C11.0867 5.4 11.27 4.96 11.27 4.38C11.27 4.13333 11.22 3.9 11.12 3.68C11.0267 3.46 10.9133 3.3 10.78 3.2H9.83ZM8.48 9V2H11.19C11.6433 2.2 12 2.50667 12.26 2.92C12.5267 3.33333 12.66 3.81667 12.66 4.37C12.66 4.91667 12.5233 5.42333 12.25 5.89C11.9767 6.35667 11.5733 6.68667 11.04 6.88H9.83V9H8.48ZM15.3517 6.69H14.2817C14.1417 6.86333 14.0717 7.08 14.0717 7.34C14.0717 7.6 14.1451 7.80333 14.2917 7.95H15.3517V6.69ZM13.2017 3.89H15.6817C16.0817 4.13 16.3451 4.40667 16.4717 4.72C16.5984 5.02667 16.6617 5.44667 16.6617 5.98V7.48C16.6617 8.03333 16.6751 8.54 16.7017 9H15.5617L15.3817 8.64C15.1217 8.88 14.7551 9 14.2817 9H13.6517C13.0851 8.62667 12.8017 8.09 12.8017 7.39C12.8017 6.68333 13.0917 6.12667 13.6717 5.72H14.6117C14.8717 5.72 15.1151 5.8 15.3417 5.96V5.46C15.3417 5.2 15.2284 5.02667 15.0017 4.94H13.2017V3.89ZM19.243 9H18.193C17.8996 8.62667 17.6996 8.25333 17.593 7.88C17.4863 7.50667 17.433 7.04 17.433 6.48V3.89H18.763V6.58C18.763 7.18667 18.883 7.64333 19.123 7.95H20.053V3.89H21.383V9H20.333L20.153 8.64C19.8996 8.88 19.5963 9 19.243 9ZM22.7386 3.89H24.9486V4.94H23.3886L24.3386 6.35C24.7653 6.95667 25.0019 7.37333 25.0486 7.6C25.0753 7.70667 25.0886 7.81667 25.0886 7.93C25.0886 8.40333 24.9119 8.76 24.5586 9H22.0086V7.95H23.8386L22.7686 6.38C22.7219 6.30667 22.6486 6.20333 22.5486 6.07C22.4553 5.93667 22.3819 5.83 22.3286 5.75C22.2753 5.66333 22.2386 5.6 22.2186 5.56C22.1986 5.52 22.1719 5.47 22.1386 5.41C22.1053 5.34333 22.0819 5.28667 22.0686 5.24C22.0419 5.11333 22.0286 5.01 22.0286 4.93C22.0286 4.44333 22.2653 4.09667 22.7386 3.89ZM27.947 4.94H27.197C27.097 5.06 27.0137 5.22667 26.947 5.44C26.887 5.65333 26.857 5.86 26.857 6.06H28.287C28.3004 5.86 28.2737 5.65333 28.207 5.44C28.1404 5.22 28.0537 5.05333 27.947 4.94ZM29.307 7.95V9H26.767C26.3004 8.68667 25.9704 8.3 25.777 7.84C25.5904 7.37333 25.497 6.90333 25.497 6.43C25.497 5.33667 25.9104 4.49 26.737 3.89H28.357C28.8037 4.21667 29.107 4.56333 29.267 4.93C29.427 5.29667 29.507 5.66667 29.507 6.04C29.507 6.41333 29.477 6.73333 29.417 7H26.927C26.947 7.15333 27.0037 7.33 27.097 7.53C27.197 7.72333 27.3037 7.86333 27.417 7.95H29.307ZM30.868 2H33.268V3.2H31.348L31.318 3.26L32.918 6.18C33.2447 6.76667 33.408 7.21333 33.408 7.52C33.408 8.19333 33.1847 8.68667 32.738 9H30.088V7.84H32.158L32.188 7.78L30.388 4.55C30.128 4.08333 29.998 3.70333 29.998 3.41C29.998 2.71667 30.288 2.24667 30.868 2ZM34.1597 6.77V4.94H33.4697V3.89H34.1597V2.5H35.4897V3.89H36.3097V4.94H35.4897V7.09C35.4897 7.49667 35.5597 7.78333 35.6997 7.95H36.3097V9H34.8897C34.5364 8.67333 34.323 8.32 34.2497 7.94C34.1897 7.62 34.1597 7.23 34.1597 6.77ZM39.3361 6.69H38.2661C38.1261 6.86333 38.0561 7.08 38.0561 7.34C38.0561 7.6 38.1294 7.80333 38.2761 7.95H39.3361V6.69ZM37.1861 3.89H39.6661C40.0661 4.13 40.3294 4.40667 40.4561 4.72C40.5828 5.02667 40.6461 5.44667 40.6461 5.98V7.48C40.6461 8.03333 40.6594 8.54 40.6861 9H39.5461L39.3661 8.64C39.1061 8.88 38.7394 9 38.2661 9H37.6361C37.0694 8.62667 36.7861 8.09 36.7861 7.39C36.7861 6.68333 37.0761 6.12667 37.6561 5.72H38.5961C38.8561 5.72 39.0994 5.8 39.3261 5.96V5.46C39.3261 5.2 39.2128 5.02667 38.9861 4.94H37.1861V3.89ZM41.6499 6.77V4.94H40.9599V3.89H41.6499V2.5H42.9799V3.89H43.7999V4.94H42.9799V7.09C42.9799 7.49667 43.0499 7.78333 43.1899 7.95H43.7999V9H42.3799C42.0266 8.67333 41.8133 8.32 41.7399 7.94C41.6799 7.62 41.6499 7.23 41.6499 6.77ZM44.4652 9V3.89H45.7852V9H44.4652ZM44.4652 2H45.7852V3.35H44.4652V2ZM49.6829 9H47.5029C46.8362 8.38 46.5029 7.53333 46.5029 6.46C46.5029 5.92 46.5762 5.45 46.7229 5.05C46.8762 4.65 47.1162 4.26333 47.4429 3.89H49.7829C50.1296 4.29 50.3662 4.68 50.4929 5.06C50.6196 5.43333 50.6829 5.9 50.6829 6.46C50.6829 7.53333 50.3496 8.38 49.6829 9ZM48.2129 7.95H48.9729C49.2129 7.48333 49.3329 6.95333 49.3329 6.36C49.3329 5.76667 49.2096 5.29333 48.9629 4.94H48.2129C47.9729 5.28 47.8529 5.76333 47.8529 6.39C47.8529 7.01 47.9729 7.53 48.2129 7.95ZM53.6188 3.89H54.6788C54.9721 4.26333 55.1721 4.63667 55.2788 5.01C55.3854 5.38333 55.4388 5.85 55.4388 6.41V9H54.1088V6.31C54.1088 5.67667 54.0221 5.22 53.8488 4.94H52.7288V9H51.3988V3.89H52.4387L52.6188 4.25C52.7654 4.11667 52.9021 4.02333 53.0288 3.97C53.1621 3.91667 53.3588 3.89 53.6188 3.89Z" fill="white"/>
<path d="M0.75 0C0.335938 0 0 0.503906 0 1.125V7.875C0 8.49609 0.335938 9 0.75 9H1.25C1.66406 9 2 8.49609 2 7.875V1.125C2 0.503906 1.66406 0 1.25 0H0.75ZM3.75 0C3.33594 0 3 0.503906 3 1.125V7.875C3 8.49609 3.33594 9 3.75 9H4.25C4.66406 9 5 8.49609 5 7.875V1.125C5 0.503906 4.66406 0 4.25 0H3.75Z" fill="white"/>
</svg>
