<svg width="48" height="30" viewBox="0 0 48 30" fill="none" xmlns="http://www.w3.org/2000/svg">
<path d="M1.83 23.2V25.7H2.72C3.08667 25.4 3.27 24.96 3.27 24.38C3.27 24.1333 3.22 23.9 3.12 23.68C3.02667 23.46 2.91333 23.3 2.78 23.2H1.83ZM0.48 29V22H3.19C3.64333 22.2 4 22.5067 4.26 22.92C4.52667 23.3333 4.66 23.8167 4.66 24.37C4.66 24.9167 4.52333 25.4233 4.25 25.89C3.97667 26.3567 3.57333 26.6867 3.04 26.88H1.83V29H0.48ZM7.35172 26.69H6.28172C6.14172 26.8633 6.07172 27.08 6.07172 27.34C6.07172 27.6 6.14505 27.8033 6.29172 27.95H7.35172V26.69ZM5.20172 23.89H7.68172C8.08172 24.13 8.34505 24.4067 8.47172 24.72C8.59839 25.0267 8.66172 25.4467 8.66172 25.98V27.48C8.66172 28.0333 8.67505 28.54 8.70172 29H7.56172L7.38172 28.64C7.12172 28.88 6.75505 29 6.28172 29H5.65172C5.08505 28.6267 4.80172 28.09 4.80172 27.39C4.80172 26.6833 5.09172 26.1267 5.67172 25.72H6.61172C6.87172 25.72 7.11505 25.8 7.34172 25.96V25.46C7.34172 25.2 7.22839 25.0267 7.00172 24.94H5.20172V23.89ZM11.243 29H10.193C9.89964 28.6267 9.69964 28.2533 9.59297 27.88C9.4863 27.5067 9.43297 27.04 9.43297 26.48V23.89H10.763V26.58C10.763 27.1867 10.883 27.6433 11.123 27.95H12.053V23.89H13.383V29H12.333L12.153 28.64C11.8996 28.88 11.5963 29 11.243 29ZM14.7386 23.89H16.9486V24.94H15.3886L16.3386 26.35C16.7653 26.9567 17.0019 27.3733 17.0486 27.6C17.0753 27.7067 17.0886 27.8167 17.0886 27.93C17.0886 28.4033 16.9119 28.76 16.5586 29H14.0086V27.95H15.8386L14.7686 26.38C14.7219 26.3067 14.6486 26.2033 14.5486 26.07C14.4553 25.9367 14.3819 25.83 14.3286 25.75C14.2753 25.6633 14.2386 25.6 14.2186 25.56C14.1986 25.52 14.1719 25.47 14.1386 25.41C14.1053 25.3433 14.0819 25.2867 14.0686 25.24C14.0419 25.1133 14.0286 25.01 14.0286 24.93C14.0286 24.4433 14.2653 24.0967 14.7386 23.89ZM19.947 24.94H19.197C19.097 25.06 19.0137 25.2267 18.947 25.44C18.887 25.6533 18.857 25.86 18.857 26.06H20.287C20.3004 25.86 20.2737 25.6533 20.207 25.44C20.1404 25.22 20.0537 25.0533 19.947 24.94ZM21.307 27.95V29H18.767C18.3004 28.6867 17.9704 28.3 17.777 27.84C17.5904 27.3733 17.497 26.9033 17.497 26.43C17.497 25.3367 17.9104 24.49 18.737 23.89H20.357C20.8037 24.2167 21.107 24.5633 21.267 24.93C21.427 25.2967 21.507 25.6667 21.507 26.04C21.507 26.4133 21.477 26.7333 21.417 27H18.927C18.947 27.1533 19.0037 27.33 19.097 27.53C19.197 27.7233 19.3037 27.8633 19.417 27.95H21.307ZM22.868 22H25.268V23.2H23.348L23.318 23.26L24.918 26.18C25.2447 26.7667 25.408 27.2133 25.408 27.52C25.408 28.1933 25.1847 28.6867 24.738 29H22.088V27.84H24.158L24.188 27.78L22.388 24.55C22.128 24.0833 21.998 23.7033 21.998 23.41C21.998 22.7167 22.288 22.2467 22.868 22ZM26.1597 26.77V24.94H25.4697V23.89H26.1597V22.5H27.4897V23.89H28.3097V24.94H27.4897V27.09C27.4897 27.4967 27.5597 27.7833 27.6997 27.95H28.3097V29H26.8897C26.5364 28.6733 26.323 28.32 26.2497 27.94C26.1897 27.62 26.1597 27.23 26.1597 26.77ZM31.3361 26.69H30.2661C30.1261 26.8633 30.0561 27.08 30.0561 27.34C30.0561 27.6 30.1294 27.8033 30.2761 27.95H31.3361V26.69ZM29.1861 23.89H31.6661C32.0661 24.13 32.3294 24.4067 32.4561 24.72C32.5828 25.0267 32.6461 25.4467 32.6461 25.98V27.48C32.6461 28.0333 32.6594 28.54 32.6861 29H31.5461L31.3661 28.64C31.1061 28.88 30.7394 29 30.2661 29H29.6361C29.0694 28.6267 28.7861 28.09 28.7861 27.39C28.7861 26.6833 29.0761 26.1267 29.6561 25.72H30.5961C30.8561 25.72 31.0994 25.8 31.3261 25.96V25.46C31.3261 25.2 31.2128 25.0267 30.9861 24.94H29.1861V23.89ZM33.6499 26.77V24.94H32.9599V23.89H33.6499V22.5H34.9799V23.89H35.7999V24.94H34.9799V27.09C34.9799 27.4967 35.0499 27.7833 35.1899 27.95H35.7999V29H34.3799C34.0266 28.6733 33.8133 28.32 33.7399 27.94C33.6799 27.62 33.6499 27.23 33.6499 26.77ZM36.4652 29V23.89H37.7852V29H36.4652ZM36.4652 22H37.7852V23.35H36.4652V22ZM41.6829 29H39.5029C38.8362 28.38 38.5029 27.5333 38.5029 26.46C38.5029 25.92 38.5762 25.45 38.7229 25.05C38.8762 24.65 39.1162 24.2633 39.4429 23.89H41.7829C42.1296 24.29 42.3662 24.68 42.4929 25.06C42.6196 25.4333 42.6829 25.9 42.6829 26.46C42.6829 27.5333 42.3496 28.38 41.6829 29ZM40.2129 27.95H40.9729C41.2129 27.4833 41.3329 26.9533 41.3329 26.36C41.3329 25.7667 41.2096 25.2933 40.9629 24.94H40.2129C39.9729 25.28 39.8529 25.7633 39.8529 26.39C39.8529 27.01 39.9729 27.53 40.2129 27.95ZM45.6188 23.89H46.6788C46.9721 24.2633 47.1721 24.6367 47.2788 25.01C47.3854 25.3833 47.4388 25.85 47.4388 26.41V29H46.1088V26.31C46.1088 25.6767 46.0221 25.22 45.8488 24.94H44.7288V29H43.3988V23.89H44.4387L44.6188 24.25C44.7654 24.1167 44.9021 24.0233 45.0288 23.97C45.1621 23.9167 45.3588 23.89 45.6188 23.89Z" fill="white"/>
<path d="M14 2.96875C14 3.95215 14.7979 4.75 15.7812 4.75H16.375V7.125H18.75V4.75H22.3125V7.125H24.6875V4.75H28.25V7.125H30.625V4.75H31.2188C32.2021 4.75 33 3.95215 33 2.96875V0.497266C33 0.222656 32.7773 0 32.5027 0C32.4396 0 32.3766 0.0111328 32.3172 0.0371094L30.4988 0.764453C29.7975 1.04277 29.0479 1.1875 28.2945 1.1875H18.7055C17.9484 1.1875 17.2025 1.04277 16.5012 0.764453L14.6828 0.0371094C14.6234 0.0148437 14.5604 0 14.4973 0C14.2227 0 14 0.222656 14 0.497266V2.96875ZM16.375 10.6875V17.8125C16.375 18.4693 16.9057 19 17.5625 19C18.2193 19 18.75 18.4693 18.75 17.8125V10.6875H28.25V17.8125C28.25 18.4693 28.7807 19 29.4375 19C30.0943 19 30.625 18.4693 30.625 17.8125V10.6875H31.8125C32.4693 10.6875 33 10.1568 33 9.5C33 8.84316 32.4693 8.3125 31.8125 8.3125H15.1875C14.5307 8.3125 14 8.84316 14 9.5C14 10.1568 14.5307 10.6875 15.1875 10.6875H16.375Z" fill="white"/>
</svg>
