<svg width="54" height="54" viewBox="0 0 54 54" fill="none" xmlns="http://www.w3.org/2000/svg">
<path d="M0 8.4375C0 11.2324 2.26758 13.5 5.0625 13.5H6.75V20.25H13.5V13.5H23.625V20.25H30.375V13.5H40.5V20.25H47.25V13.5H48.9375C51.7324 13.5 54 11.2324 54 8.4375V1.41328C54 0.632812 53.3672 0 52.5867 0C52.4074 0 52.2281 0.0316406 52.0594 0.105469L46.8914 2.17266C44.898 2.96367 42.7676 3.375 40.6266 3.375H13.3734C11.2219 3.375 9.10195 2.96367 7.10859 2.17266L1.94062 0.105469C1.77187 0.0421875 1.59258 0 1.41328 0C0.632812 0 0 0.632812 0 1.41328V8.4375ZM6.75 30.375V50.625C6.75 52.4918 8.2582 54 10.125 54C11.9918 54 13.5 52.4918 13.5 50.625V30.375H40.5V50.625C40.5 52.4918 42.0082 54 43.875 54C45.7418 54 47.25 52.4918 47.25 50.625V30.375H50.625C52.4918 30.375 54 28.8668 54 27C54 25.1332 52.4918 23.625 50.625 23.625H3.375C1.5082 23.625 0 25.1332 0 27C0 28.8668 1.5082 30.375 3.375 30.375H6.75Z" fill="white"/>
</svg>
