<svg width="173" height="89" viewBox="0 0 173 89" fill="none" xmlns="http://www.w3.org/2000/svg">
<path d="M89.752 12.4014L84.4812 11.1064C83.8211 10.9471 83.3337 10.3992 83.2626 9.73184C83.1915 9.06445 83.5469 8.42695 84.1461 8.12812L88.2896 6.09609L83.9024 2.86875C83.3438 2.46035 83.1102 1.74316 83.3337 1.08574C83.5571 0.42832 84.1766 0 84.8773 0H96.2515H99.5013H101.126C104.193 0 107.088 1.41445 108.926 3.825L114.775 11.475C115.405 12.3018 115.75 13.3078 115.75 14.3438C115.75 16.9834 113.567 19.125 110.876 19.125H108.692C106.966 19.125 105.31 18.4576 104.092 17.2623L102.751 15.9375H99.5013V18.0791C99.5013 20.5494 100.801 22.8504 102.934 24.1652L113.76 30.7992C117.02 32.8014 119 36.2977 119 40.0729C119 46.1092 114.014 51 107.849 51H104.376H97.8764H57.2847C56.9495 51 56.6144 50.9602 56.3097 50.8605C55.3754 50.5816 54.6137 49.9043 54.2481 49.0178C54.106 48.6791 54.0247 48.3305 54.0044 47.952C53.9841 47.5834 54.0349 47.2248 54.1364 46.8861C54.4208 45.9697 55.1114 45.2227 56.0254 44.8541C56.33 44.7346 56.655 44.6549 56.9901 44.635L98.0085 41.0391C98.8514 40.9693 99.5013 40.2721 99.5013 39.4354C99.5013 39.007 99.3287 38.5986 99.024 38.2998L94.5149 33.8771C91.4683 30.8889 89.752 26.8348 89.752 22.6113V18.0791V12.4014ZM106.001 7.20176C106.001 7.1918 106.001 7.18184 106.001 7.17188C106.001 7.16191 106.001 7.15195 106.001 7.14199V7.20176ZM105.869 7.93887L101.157 6.7834C101.136 6.91289 101.126 7.04238 101.126 7.17188C101.126 8.49668 102.213 9.5625 103.564 9.5625C104.64 9.5625 105.544 8.88516 105.869 7.93887ZM67.298 11.6045C68.9534 10.1602 71.4009 9.99082 73.239 11.1961L86.5022 19.8621V22.6113C86.5022 25.8785 87.3553 29.066 88.9395 31.875H65.3786C64.6982 31.875 64.0889 31.4566 63.8553 30.8391C63.6217 30.2215 63.8045 29.5143 64.3225 29.076L71.3704 23.1393L55.873 25.4801C55.1621 25.5896 54.4614 25.2211 54.1567 24.5836C53.8521 23.9461 54.0044 23.1791 54.5427 22.7109L67.298 11.6045Z" fill="white"/>
<path d="M6.588 65.12V74.12H9.792C11.112 73.04 11.772 71.456 11.772 69.368C11.772 68.48 11.592 67.64 11.232 66.848C10.896 66.056 10.488 65.48 10.008 65.12H6.588ZM1.728 86V60.8H11.484C13.116 61.52 14.4 62.624 15.336 64.112C16.296 65.6 16.776 67.34 16.776 69.332C16.776 71.3 16.284 73.124 15.3 74.804C14.316 76.484 12.864 77.672 10.944 78.368H6.588V86H1.728ZM26.4662 77.684H22.6142C22.1102 78.308 21.8582 79.088 21.8582 80.024C21.8582 80.96 22.1222 81.692 22.6502 82.22H26.4662V77.684ZM18.7262 67.604H27.6542C29.0942 68.468 30.0422 69.464 30.4982 70.592C30.9542 71.696 31.1822 73.208 31.1822 75.128V80.528C31.1822 82.52 31.2302 84.344 31.3262 86H27.2222L26.5742 84.704C25.6382 85.568 24.3182 86 22.6142 86H20.3462C18.3062 84.656 17.2862 82.724 17.2862 80.204C17.2862 77.66 18.3302 75.656 20.4182 74.192H23.8022C24.7382 74.192 25.6142 74.48 26.4302 75.056V73.256C26.4302 72.32 26.0222 71.696 25.2062 71.384H18.7262V67.604ZM40.4747 86H36.6947C35.6387 84.656 34.9187 83.312 34.5347 81.968C34.1507 80.624 33.9587 78.944 33.9587 76.928V67.604H38.7467V77.288C38.7467 79.472 39.1787 81.116 40.0427 82.22H43.3907V67.604H48.1787V86H44.3987L43.7507 84.704C42.8387 85.568 41.7467 86 40.4747 86ZM53.0589 67.604H61.0149V71.384H55.3989L58.8189 76.46C60.3549 78.644 61.2069 80.144 61.3749 80.96C61.4709 81.344 61.5189 81.74 61.5189 82.148C61.5189 83.852 60.8829 85.136 59.6109 86H50.4309V82.22H57.0189L53.1669 76.568C52.9989 76.304 52.7349 75.932 52.3749 75.452C52.0389 74.972 51.7749 74.588 51.5829 74.3C51.3909 73.988 51.2589 73.76 51.1869 73.616C51.1149 73.472 51.0189 73.292 50.8989 73.076C50.7789 72.836 50.6949 72.632 50.6469 72.464C50.5509 72.008 50.5029 71.636 50.5029 71.348C50.5029 69.596 51.3549 68.348 53.0589 67.604ZM71.8093 71.384H69.1093C68.7493 71.816 68.4493 72.416 68.2093 73.184C67.9933 73.952 67.8853 74.696 67.8853 75.416H73.0333C73.0813 74.696 72.9853 73.952 72.7453 73.184C72.5053 72.392 72.1933 71.792 71.8093 71.384ZM76.7053 82.22V86H67.5613C65.8813 84.872 64.6933 83.48 63.9973 81.824C63.3253 80.144 62.9893 78.452 62.9893 76.748C62.9893 72.812 64.4773 69.764 67.4533 67.604H73.2853C74.8933 68.78 75.9853 70.028 76.5613 71.348C77.1373 72.668 77.4253 74 77.4253 75.344C77.4253 76.688 77.3173 77.84 77.1013 78.8H68.1373C68.2093 79.352 68.4133 79.988 68.7493 80.708C69.1093 81.404 69.4933 81.908 69.9013 82.22H76.7053ZM82.325 60.8H90.965V65.12H84.053L83.945 65.336L89.705 75.848C90.881 77.96 91.469 79.568 91.469 80.672C91.469 83.096 90.665 84.872 89.057 86H79.517V81.824H86.969L87.077 81.608L80.597 69.98C79.661 68.3 79.193 66.932 79.193 65.876C79.193 63.38 80.237 61.688 82.325 60.8ZM94.1749 77.972V71.384H91.6909V67.604H94.1749V62.6H98.9629V67.604H101.915V71.384H98.9629V79.124C98.9629 80.588 99.2149 81.62 99.7189 82.22H101.915V86H96.8029C95.5309 84.824 94.7629 83.552 94.4989 82.184C94.2829 81.032 94.1749 79.628 94.1749 77.972ZM112.81 77.684H108.958C108.454 78.308 108.202 79.088 108.202 80.024C108.202 80.96 108.466 81.692 108.994 82.22H112.81V77.684ZM105.07 67.604H113.998C115.438 68.468 116.386 69.464 116.842 70.592C117.298 71.696 117.526 73.208 117.526 75.128V80.528C117.526 82.52 117.574 84.344 117.67 86H113.566L112.918 84.704C111.982 85.568 110.662 86 108.958 86H106.69C104.65 84.656 103.63 82.724 103.63 80.204C103.63 77.66 104.674 75.656 106.762 74.192H110.146C111.082 74.192 111.958 74.48 112.774 75.056V73.256C112.774 72.32 112.366 71.696 111.55 71.384H105.07V67.604ZM121.14 77.972V71.384H118.656V67.604H121.14V62.6H125.928V67.604H128.88V71.384H125.928V79.124C125.928 80.588 126.18 81.62 126.684 82.22H128.88V86H123.768C122.496 84.824 121.728 83.552 121.464 82.184C121.248 81.032 121.14 79.628 121.14 77.972ZM131.275 86V67.604H136.027V86H131.275ZM131.275 60.8H136.027V65.66H131.275V60.8ZM150.058 86H142.21C139.81 83.768 138.61 80.72 138.61 76.856C138.61 74.912 138.874 73.22 139.402 71.78C139.954 70.34 140.818 68.948 141.994 67.604H150.418C151.666 69.044 152.518 70.448 152.974 71.816C153.43 73.16 153.658 74.84 153.658 76.856C153.658 80.72 152.458 83.768 150.058 86ZM144.766 82.22H147.502C148.366 80.54 148.798 78.632 148.798 76.496C148.798 74.36 148.354 72.656 147.466 71.384H144.766C143.902 72.608 143.47 74.348 143.47 76.604C143.47 78.836 143.902 80.708 144.766 82.22ZM164.228 67.604H168.044C169.1 68.948 169.82 70.292 170.204 71.636C170.588 72.98 170.78 74.66 170.78 76.676V86H165.992V76.316C165.992 74.036 165.68 72.392 165.056 71.384H161.024V86H156.236V67.604H159.979L160.628 68.9C161.156 68.42 161.648 68.084 162.104 67.892C162.584 67.7 163.292 67.604 164.228 67.604Z" fill="white"/>
</svg>
