<svg width="201" height="26" viewBox="0 0 201 26" fill="none" xmlns="http://www.w3.org/2000/svg">
<path d="M34.588 5.12V14.12H37.792C39.112 13.04 39.772 11.456 39.772 9.368C39.772 8.48 39.592 7.64 39.232 6.848C38.896 6.056 38.488 5.48 38.008 5.12H34.588ZM29.728 26V0.799998H39.484C41.116 1.52 42.4 2.624 43.336 4.112C44.296 5.6 44.776 7.34 44.776 9.332C44.776 11.3 44.284 13.124 43.3 14.804C42.316 16.484 40.864 17.672 38.944 18.368H34.588V26H29.728ZM54.4662 17.684H50.6142C50.1102 18.308 49.8582 19.088 49.8582 20.024C49.8582 20.96 50.1222 21.692 50.6502 22.22H54.4662V17.684ZM46.7262 7.604H55.6542C57.0942 8.468 58.0422 9.464 58.4982 10.592C58.9542 11.696 59.1822 13.208 59.1822 15.128V20.528C59.1822 22.52 59.2302 24.344 59.3262 26H55.2222L54.5742 24.704C53.6382 25.568 52.3182 26 50.6142 26H48.3462C46.3062 24.656 45.2862 22.724 45.2862 20.204C45.2862 17.66 46.3302 15.656 48.4182 14.192H51.8022C52.7382 14.192 53.6142 14.48 54.4302 15.056V13.256C54.4302 12.32 54.0222 11.696 53.2062 11.384H46.7262V7.604ZM68.4747 26H64.6947C63.6387 24.656 62.9187 23.312 62.5347 21.968C62.1507 20.624 61.9587 18.944 61.9587 16.928V7.604H66.7467V17.288C66.7467 19.472 67.1787 21.116 68.0427 22.22H71.3907V7.604H76.1787V26H72.3987L71.7507 24.704C70.8387 25.568 69.7467 26 68.4747 26ZM81.0589 7.604H89.0149V11.384H83.3989L86.8189 16.46C88.3549 18.644 89.2069 20.144 89.3749 20.96C89.4709 21.344 89.5189 21.74 89.5189 22.148C89.5189 23.852 88.8829 25.136 87.6109 26H78.4309V22.22H85.0189L81.1669 16.568C80.9989 16.304 80.7349 15.932 80.3749 15.452C80.0389 14.972 79.7749 14.588 79.5829 14.3C79.3909 13.988 79.2589 13.76 79.1869 13.616C79.1149 13.472 79.0189 13.292 78.8989 13.076C78.7789 12.836 78.6949 12.632 78.6469 12.464C78.5509 12.008 78.5029 11.636 78.5029 11.348C78.5029 9.596 79.3549 8.348 81.0589 7.604ZM99.8093 11.384H97.1093C96.7493 11.816 96.4493 12.416 96.2093 13.184C95.9933 13.952 95.8853 14.696 95.8853 15.416H101.033C101.081 14.696 100.985 13.952 100.745 13.184C100.505 12.392 100.193 11.792 99.8093 11.384ZM104.705 22.22V26H95.5613C93.8813 24.872 92.6933 23.48 91.9973 21.824C91.3253 20.144 90.9893 18.452 90.9893 16.748C90.9893 12.812 92.4773 9.764 95.4533 7.604H101.285C102.893 8.78 103.985 10.028 104.561 11.348C105.137 12.668 105.425 14 105.425 15.344C105.425 16.688 105.317 17.84 105.101 18.8H96.1373C96.2093 19.352 96.4133 19.988 96.7493 20.708C97.1093 21.404 97.4933 21.908 97.9013 22.22H104.705ZM110.325 0.799998H118.965V5.12H112.053L111.945 5.336L117.705 15.848C118.881 17.96 119.469 19.568 119.469 20.672C119.469 23.096 118.665 24.872 117.057 26H107.517V21.824H114.969L115.077 21.608L108.597 9.98C107.661 8.3 107.193 6.932 107.193 5.876C107.193 3.38 108.237 1.688 110.325 0.799998ZM122.175 17.972V11.384H119.691V7.604H122.175V2.6H126.963V7.604H129.915V11.384H126.963V19.124C126.963 20.588 127.215 21.62 127.719 22.22H129.915V26H124.803C123.531 24.824 122.763 23.552 122.499 22.184C122.283 21.032 122.175 19.628 122.175 17.972ZM140.81 17.684H136.958C136.454 18.308 136.202 19.088 136.202 20.024C136.202 20.96 136.466 21.692 136.994 22.22H140.81V17.684ZM133.07 7.604H141.998C143.438 8.468 144.386 9.464 144.842 10.592C145.298 11.696 145.526 13.208 145.526 15.128V20.528C145.526 22.52 145.574 24.344 145.67 26H141.566L140.918 24.704C139.982 25.568 138.662 26 136.958 26H134.69C132.65 24.656 131.63 22.724 131.63 20.204C131.63 17.66 132.674 15.656 134.762 14.192H138.146C139.082 14.192 139.958 14.48 140.774 15.056V13.256C140.774 12.32 140.366 11.696 139.55 11.384H133.07V7.604ZM149.14 17.972V11.384H146.656V7.604H149.14V2.6H153.928V7.604H156.88V11.384H153.928V19.124C153.928 20.588 154.18 21.62 154.684 22.22H156.88V26H151.768C150.496 24.824 149.728 23.552 149.464 22.184C149.248 21.032 149.14 19.628 149.14 17.972ZM159.275 26V7.604H164.027V26H159.275ZM159.275 0.799998H164.027V5.66H159.275V0.799998ZM178.058 26H170.21C167.81 23.768 166.61 20.72 166.61 16.856C166.61 14.912 166.874 13.22 167.402 11.78C167.954 10.34 168.818 8.948 169.994 7.604H178.418C179.666 9.044 180.518 10.448 180.974 11.816C181.43 13.16 181.658 14.84 181.658 16.856C181.658 20.72 180.458 23.768 178.058 26ZM172.766 22.22H175.502C176.366 20.54 176.798 18.632 176.798 16.496C176.798 14.36 176.354 12.656 175.466 11.384H172.766C171.902 12.608 171.47 14.348 171.47 16.604C171.47 18.836 171.902 20.708 172.766 22.22ZM192.228 7.604H196.044C197.1 8.948 197.82 10.292 198.204 11.636C198.588 12.98 198.78 14.66 198.78 16.676V26H193.992V16.316C193.992 14.036 193.68 12.392 193.056 11.384H189.024V26H184.236V7.604H187.979L188.628 8.9C189.156 8.42 189.648 8.084 190.104 7.892C190.584 7.7 191.292 7.604 192.228 7.604Z" fill="white"/>
<g clip-path="url(#clip0_313_61)">
<path d="M13.8818 1.57129C13.1201 0.80957 11.8848 0.80957 11.1182 1.57129L0.571289 12.1182C-0.19043 12.8799 -0.19043 14.1152 0.571289 14.8818L11.1182 25.4287C11.8799 26.1904 13.1152 26.1904 13.8818 25.4287L24.4287 14.8818C25.1904 14.1201 25.1904 12.8848 24.4287 12.1182L13.8818 1.57129Z" fill="white"/>
</g>
<defs>
<clipPath id="clip0_313_61">
<rect width="25" height="25" fill="white" transform="translate(0 1)"/>
</clipPath>
</defs>
</svg>
