<svg width="173" height="97" viewBox="0 0 173 97" fill="none" xmlns="http://www.w3.org/2000/svg">
<path d="M6.588 76.12V85.12H9.792C11.112 84.04 11.772 82.456 11.772 80.368C11.772 79.48 11.592 78.64 11.232 77.848C10.896 77.056 10.488 76.48 10.008 76.12H6.588ZM1.728 97V71.8H11.484C13.116 72.52 14.4 73.624 15.336 75.112C16.296 76.6 16.776 78.34 16.776 80.332C16.776 82.3 16.284 84.124 15.3 85.804C14.316 87.484 12.864 88.672 10.944 89.368H6.588V97H1.728ZM26.4662 88.684H22.6142C22.1102 89.308 21.8582 90.088 21.8582 91.024C21.8582 91.96 22.1222 92.692 22.6502 93.22H26.4662V88.684ZM18.7262 78.604H27.6542C29.0942 79.468 30.0422 80.464 30.4982 81.592C30.9542 82.696 31.1822 84.208 31.1822 86.128V91.528C31.1822 93.52 31.2302 95.344 31.3262 97H27.2222L26.5742 95.704C25.6382 96.568 24.3182 97 22.6142 97H20.3462C18.3062 95.656 17.2862 93.724 17.2862 91.204C17.2862 88.66 18.3302 86.656 20.4182 85.192H23.8022C24.7382 85.192 25.6142 85.48 26.4302 86.056V84.256C26.4302 83.32 26.0222 82.696 25.2062 82.384H18.7262V78.604ZM40.4747 97H36.6947C35.6387 95.656 34.9187 94.312 34.5347 92.968C34.1507 91.624 33.9587 89.944 33.9587 87.928V78.604H38.7467V88.288C38.7467 90.472 39.1787 92.116 40.0427 93.22H43.3907V78.604H48.1787V97H44.3987L43.7507 95.704C42.8387 96.568 41.7467 97 40.4747 97ZM53.0589 78.604H61.0149V82.384H55.3989L58.8189 87.46C60.3549 89.644 61.2069 91.144 61.3749 91.96C61.4709 92.344 61.5189 92.74 61.5189 93.148C61.5189 94.852 60.8829 96.136 59.6109 97H50.4309V93.22H57.0189L53.1669 87.568C52.9989 87.304 52.7349 86.932 52.3749 86.452C52.0389 85.972 51.7749 85.588 51.5829 85.3C51.3909 84.988 51.2589 84.76 51.1869 84.616C51.1149 84.472 51.0189 84.292 50.8989 84.076C50.7789 83.836 50.6949 83.632 50.6469 83.464C50.5509 83.008 50.5029 82.636 50.5029 82.348C50.5029 80.596 51.3549 79.348 53.0589 78.604ZM71.8093 82.384H69.1093C68.7493 82.816 68.4493 83.416 68.2093 84.184C67.9933 84.952 67.8853 85.696 67.8853 86.416H73.0333C73.0813 85.696 72.9853 84.952 72.7453 84.184C72.5053 83.392 72.1933 82.792 71.8093 82.384ZM76.7053 93.22V97H67.5613C65.8813 95.872 64.6933 94.48 63.9973 92.824C63.3253 91.144 62.9893 89.452 62.9893 87.748C62.9893 83.812 64.4773 80.764 67.4533 78.604H73.2853C74.8933 79.78 75.9853 81.028 76.5613 82.348C77.1373 83.668 77.4253 85 77.4253 86.344C77.4253 87.688 77.3173 88.84 77.1013 89.8H68.1373C68.2093 90.352 68.4133 90.988 68.7493 91.708C69.1093 92.404 69.4933 92.908 69.9013 93.22H76.7053ZM82.325 71.8H90.965V76.12H84.053L83.945 76.336L89.705 86.848C90.881 88.96 91.469 90.568 91.469 91.672C91.469 94.096 90.665 95.872 89.057 97H79.517V92.824H86.969L87.077 92.608L80.597 80.98C79.661 79.3 79.193 77.932 79.193 76.876C79.193 74.38 80.237 72.688 82.325 71.8ZM94.1749 88.972V82.384H91.6909V78.604H94.1749V73.6H98.9629V78.604H101.915V82.384H98.9629V90.124C98.9629 91.588 99.2149 92.62 99.7189 93.22H101.915V97H96.8029C95.5309 95.824 94.7629 94.552 94.4989 93.184C94.2829 92.032 94.1749 90.628 94.1749 88.972ZM112.81 88.684H108.958C108.454 89.308 108.202 90.088 108.202 91.024C108.202 91.96 108.466 92.692 108.994 93.22H112.81V88.684ZM105.07 78.604H113.998C115.438 79.468 116.386 80.464 116.842 81.592C117.298 82.696 117.526 84.208 117.526 86.128V91.528C117.526 93.52 117.574 95.344 117.67 97H113.566L112.918 95.704C111.982 96.568 110.662 97 108.958 97H106.69C104.65 95.656 103.63 93.724 103.63 91.204C103.63 88.66 104.674 86.656 106.762 85.192H110.146C111.082 85.192 111.958 85.48 112.774 86.056V84.256C112.774 83.32 112.366 82.696 111.55 82.384H105.07V78.604ZM121.14 88.972V82.384H118.656V78.604H121.14V73.6H125.928V78.604H128.88V82.384H125.928V90.124C125.928 91.588 126.18 92.62 126.684 93.22H128.88V97H123.768C122.496 95.824 121.728 94.552 121.464 93.184C121.248 92.032 121.14 90.628 121.14 88.972ZM131.275 97V78.604H136.027V97H131.275ZM131.275 71.8H136.027V76.66H131.275V71.8ZM150.058 97H142.21C139.81 94.768 138.61 91.72 138.61 87.856C138.61 85.912 138.874 84.22 139.402 82.78C139.954 81.34 140.818 79.948 141.994 78.604H150.418C151.666 80.044 152.518 81.448 152.974 82.816C153.43 84.16 153.658 85.84 153.658 87.856C153.658 91.72 152.458 94.768 150.058 97ZM144.766 93.22H147.502C148.366 91.54 148.798 89.632 148.798 87.496C148.798 85.36 148.354 83.656 147.466 82.384H144.766C143.902 83.608 143.47 85.348 143.47 87.604C143.47 89.836 143.902 91.708 144.766 93.22ZM164.228 78.604H168.044C169.1 79.948 169.82 81.292 170.204 82.636C170.588 83.98 170.78 85.66 170.78 87.676V97H165.992V87.316C165.992 85.036 165.68 83.392 165.056 82.384H161.024V97H156.236V78.604H159.979L160.628 79.9C161.156 79.42 161.648 79.084 162.104 78.892C162.584 78.7 163.292 78.604 164.228 78.604Z" fill="white"/>
<path d="M59.8383 12.5441C59.7604 10.3609 60.0978 8.25384 61.4864 6.42605C61.5253 7.36533 61.6421 8.26653 62.0314 9.16773C62.7971 5.67716 64.5879 2.91009 67.5208 0.853824C67.2742 1.60271 67.0666 2.3516 67.1315 3.10048C68.2605 2.1612 69.5712 0.841131 72.8934 0.219174C74.801 -0.136229 76.7476 -0.0346856 78.3568 0.346104C83.353 1.52655 86.2729 4.6998 87.4019 9.52314C88.0897 12.4552 87.4928 15.235 86.3248 17.9513C85.65 19.5252 84.7675 21.0484 83.6385 22.4065C83.379 22.1654 83.1324 21.9242 82.8858 21.6957C77.3316 16.517 79.4079 18.4971 78.0323 16.9485C77.8896 16.7962 77.9026 16.6693 78.0194 16.4916C79.0965 14.778 79.5507 12.9122 79.3171 10.9067C79.1743 9.66276 78.7591 8.5077 77.8507 7.58111C75.969 5.63908 72.7636 5.67716 70.9078 7.65727C69.4284 9.24389 69.078 11.1351 69.4933 13.1914C69.5193 13.3564 69.5452 13.5341 69.4933 13.6864C69.0521 15.4254 68.8964 17.1897 69.1689 18.9667C69.1819 19.0302 69.1819 19.1063 69.1819 19.1698C69.1819 19.2079 69.1689 19.2333 69.1559 19.3094C66.3269 17.9132 64.4841 15.7173 63.5497 12.6837C62.4726 14.943 62.1093 17.1897 62.6932 19.5506C60.6688 17.6213 59.9291 15.1969 59.8383 12.5441ZM120.779 28.1818C119.274 26.7094 117.535 25.5925 115.576 24.8055C113.914 24.1455 112.201 23.8028 110.398 23.9043C109.1 23.9805 107.854 24.2978 106.634 24.7166C106.31 24.8309 105.972 24.9197 105.635 24.9959C104.999 25.1482 104.688 24.6024 105.025 24.1328C105.44 23.5489 105.466 23.5997 106.972 22.6096C107.049 22.5588 107.127 22.5081 107.257 22.4192H106.933C106.855 22.4192 106.777 22.4446 106.686 22.4573C104.181 22.8762 102.702 24.4247 100.34 26.2144C98.9906 27.2426 98.5494 26.6968 98.783 26.151C98.9646 25.7067 99.2112 25.3005 99.4448 24.8817C99.5746 24.6532 99.7433 24.4501 99.899 24.2343C99.873 24.2089 99.8341 24.1962 99.8082 24.1709C96.3043 26.4937 93.7478 29.5527 92.3203 33.4748C92.3592 33.5129 92.4111 33.551 92.4501 33.5891C92.489 33.5129 92.515 33.4367 92.5669 33.3733C93.9165 31.8374 95.5257 30.6062 97.3165 29.5908C99.6784 28.2453 102.183 27.2679 104.934 27.0268C105.492 26.976 106.063 27.0141 106.634 27.0141C106.401 27.1029 106.18 27.1283 105.946 27.1537C103.546 27.4583 101.339 28.2961 99.2631 29.5019C95.344 31.774 92.1905 34.8583 89.5172 38.4378C89.4783 38.4885 89.4653 38.552 89.4264 38.6028C91.3081 39.2755 92.5409 40.7987 94.1112 41.8522C94.1371 41.8395 94.1501 41.8268 94.1631 41.8014L94.3188 41.4587C95.902 38.0443 97.8226 34.8203 100.379 32.0024C102.546 29.6161 105.311 28.7911 108.49 29.4638C109.256 29.6288 109.969 30.0223 110.722 30.327C111.02 30.1492 111.384 29.9208 111.76 29.7304C112.85 29.1846 114.018 28.8419 115.225 28.588C117.133 28.1945 119.053 27.9661 121 28.423V28.3595C120.935 28.3088 120.844 28.258 120.779 28.1818ZM90.231 50.458C85.1179 46.2694 87.2721 47.9829 84.6897 45.9393C84.5859 46.0536 84.6897 45.9139 84.4431 46.3201C82.9897 48.7445 81.1339 50.8007 78.7331 52.362C77.3965 53.2251 75.943 53.8598 74.3079 53.8598C71.5048 53.8598 69.3506 52.6539 67.8971 50.3311C66.3399 47.856 66.1711 45.1651 66.833 42.3853C67.8452 38.0951 70.7391 35.3788 71.8422 34.2237C69.4155 33.4367 67.5597 34.4395 65.8208 35.988C65.9246 34.2237 66.3788 32.6625 67.3521 31.2535C64.1986 32.599 61.3955 34.4268 58.9428 36.8258C58.9039 36.0896 59.6436 31.2789 59.6696 31.152C59.7085 30.8093 59.5917 30.4793 59.2802 30.2127C56.1397 33.3479 53.5054 36.7877 52 40.951C52.9603 40.2021 53.9336 39.504 55.0626 38.8947C53.9855 41.7253 52.5191 45.5966 54.0504 51.7273C54.6474 54.139 55.5947 56.3984 57.1779 58.3658C57.5543 58.8354 57.9955 59.2416 58.4108 59.6732C58.4367 59.6478 58.4627 59.6351 58.4886 59.6097C58.3069 58.7212 58.2031 57.82 58.294 56.8299C58.5795 57.2361 58.8001 57.5915 59.0596 57.9215C60.6948 59.9524 62.7841 61.3994 65.1849 62.4402C68.4292 63.8745 71.8162 64.1284 75.2942 63.5318C82.4187 62.3006 87.0645 57.363 90.3478 50.9911C90.4775 50.7627 90.4256 50.623 90.231 50.458ZM112.552 44.5685C111.319 44.175 109.671 44.0354 108.827 44.2004C110.112 44.7081 110.657 45.0381 111.267 45.7235C112.902 47.5513 112.617 50.128 110.566 51.5116C109.048 52.5397 107.335 52.8443 105.518 52.6666C105.362 52.6539 105.22 52.6158 105.129 52.5905C105.492 52.1208 105.907 51.702 106.18 51.2196C107.4 49.0872 106.881 45.8759 105.051 44.0988C104.778 43.8323 104.454 43.6038 104.143 43.35C104.104 43.515 104.13 43.6165 104.156 43.7054C104.701 45.8124 103.104 47.8179 100.937 47.7417C99.9509 47.7037 99.1333 47.2594 98.3936 46.6628C95.8631 44.6193 93.3195 42.5884 90.802 40.5321C90.0363 39.9102 89.1798 39.504 88.1935 39.4278C87.5966 39.3771 86.9866 39.3517 86.3897 39.3136C85.624 39.2628 85.2477 38.9582 85.0401 38.2474C84.9233 37.8158 84.8454 37.3843 84.7546 36.9527C84.5599 35.9246 83.95 35.3026 82.8988 35.1503C82.3278 35.0614 81.7438 35.0234 81.1728 34.9599C79.4858 34.7822 78.6033 34.0206 78.24 32.3832C77.5911 33.7794 78.0323 35.2264 79.1873 36.1784C79.7713 36.6608 80.3942 37.105 80.9782 37.6C81.5751 38.0824 81.9385 38.7043 82.0034 39.4786C82.0553 40.0752 82.1072 40.6844 82.237 41.2683C82.5225 42.6138 83.3919 43.6038 84.4431 44.4543C86.5844 46.1932 88.7256 47.9194 90.8668 49.6711C93.1898 51.575 92.6707 53.8344 92.5539 56.7791C92.4371 59.6858 94.1371 62.2244 96.9013 63.278C97.031 63.3287 97.1608 63.3541 97.3684 63.4176C95.331 61.1075 96.0577 57.82 97.4593 56.7791C97.4982 57.0584 97.5112 57.3249 97.5761 57.5915C98.7959 63.1891 103.468 65.7404 108.607 64.8138C110.683 64.4457 112.578 63.6841 114.174 62.3006C114.434 62.0721 114.654 61.7802 114.94 61.4756C112.435 62.0594 110.294 61.4882 108.334 60.1301C108.425 60.092 108.503 60.092 108.581 60.092C111.345 60.3205 113.85 59.6605 115.978 57.8834C118.508 55.7764 119.43 52.4381 118.236 49.5061C117.159 46.9548 115.173 45.4062 112.552 44.5685ZM62.0314 22.7492C61.3436 21.5815 60.3184 20.7691 59.1634 20.0456C60.9413 19.9822 62.6154 20.071 64.3024 20.5153C63.394 18.9667 63.1994 17.3801 63.6536 15.6031C64.3414 17.1135 65.4314 18.1544 66.7162 19.0048C69.2727 20.6803 71.3491 21.4926 72.7766 22.8381C73.2178 23.257 73.5941 23.7393 74.0224 24.2216C73.9186 23.9551 73.8407 23.7012 73.7369 23.46C73.088 22.1146 72.0498 21.0991 70.804 20.2868C70.5704 20.1345 70.4407 19.9695 70.3628 19.7156C69.9345 18.129 69.9735 16.5297 70.272 14.943C70.4017 14.2449 70.6353 13.5595 70.8559 12.8741C70.9597 12.5695 71.1544 12.2902 71.375 12.0364C71.4529 12.9122 71.375 15.2731 73.9186 17.8751C75.3201 19.3094 76.8255 20.6549 78.3178 22.0257C79.4858 23.1046 80.6927 24.1455 81.627 25.4275C81.7698 25.6305 81.9125 25.8463 82.1202 26.024C81.4713 24.3739 80.2774 22.965 78.9797 21.7338C77.7339 20.5533 76.4621 19.3983 75.1903 18.2559C74.7621 17.8751 74.5934 17.4055 74.5285 16.8724C74.3728 15.5523 74.5285 14.2576 75.0865 13.0391C75.1514 12.9122 75.2293 12.7852 75.3331 12.6202C75.398 13.1533 75.4109 13.623 75.5148 14.0926C76.1377 17.0247 78.1621 18.7002 81.9125 22.1527C83.2103 23.3458 84.4172 24.5897 85.2347 26.1636C85.8576 27.3441 86.1821 28.5753 85.9744 29.9208C85.9614 29.9969 86.0393 30.1366 86.1172 30.1746C86.9218 30.5047 87.4149 31.0505 87.376 31.9897C88.3752 31.6597 88.9981 30.9743 89.5042 30.1493C90.0493 32.7132 88.3233 36.5338 85.9744 37.6C86.0263 37.0288 86.6233 34.6299 83.8332 34.0841C82.9507 33.9191 82.1721 33.9191 80.8614 33.8175C81.4713 32.6752 82.211 31.2028 80.9263 30.9743C77.6949 30.3904 74.0743 31.2155 73.4254 31.5582C74.4896 31.6089 75.5407 31.6851 76.4751 31.977C76.2155 32.8021 75.956 33.589 75.7224 34.376C75.4758 35.2011 75.9949 36.2292 76.9293 35.5945C77.085 35.4803 77.2278 35.3534 77.3575 35.2518C76.9552 37.5239 76.9812 37.27 76.9942 37.5747C77.0331 38.8693 78.227 38.5647 79.0316 38.5012C78.7072 39.999 75.2033 41.9664 73.1399 41.776C74.0483 41.1795 74.788 40.4687 75.2033 39.504C74.3598 39.6055 73.5292 39.7071 72.7117 39.8086L72.6727 39.6944C73.2827 39.2628 73.7109 38.7043 73.9964 38.0316C75.1254 35.3534 73.5292 33.2083 70.7521 32.9671C69.5712 32.8655 68.4422 33.0686 67.391 33.6652C68.1956 31.6851 69.6231 30.2889 71.6216 29.2861C69.649 28.7403 70.4666 28.9434 68.4292 28.4865C70.3239 27.306 72.3483 26.811 74.4636 26.6333C73.7888 26.2271 68.2216 26.1763 65.3536 29.2861C66.3788 29.4638 67.3651 29.6415 68.3643 29.8192C65.2757 30.7077 62.6543 32.3198 60.2665 34.3379C60.4093 33.7287 60.6169 33.1321 60.6948 32.5228C60.7726 31.9517 60.7986 31.3551 60.7077 30.7966C60.5131 29.6035 59.5528 28.8799 58.1512 28.7276C57.126 28.6134 56.1268 28.7403 55.1275 28.8926C55.0107 28.9053 54.9069 28.9307 54.7512 28.8926C56.8016 27.0141 59.423 26.1383 61.6421 24.6405C62.4207 24.0693 62.5245 23.5997 62.0314 22.7492ZM78.6942 26.151C79.1224 28.1818 80.3293 29.3877 81.7828 29.2354C81.1858 27.801 80.2125 26.7602 78.6942 26.151Z" fill="white"/>
</svg>
