<svg width="48" height="30" viewBox="0 0 48 30" fill="none" xmlns="http://www.w3.org/2000/svg">
<path d="M1.83 23.2V25.7H2.72C3.08667 25.4 3.27 24.96 3.27 24.38C3.27 24.1333 3.22 23.9 3.12 23.68C3.02667 23.46 2.91333 23.3 2.78 23.2H1.83ZM0.48 29V22H3.19C3.64333 22.2 4 22.5067 4.26 22.92C4.52667 23.3333 4.66 23.8167 4.66 24.37C4.66 24.9167 4.52333 25.4233 4.25 25.89C3.97667 26.3567 3.57333 26.6867 3.04 26.88H1.83V29H0.48ZM7.35172 26.69H6.28172C6.14172 26.8633 6.07172 27.08 6.07172 27.34C6.07172 27.6 6.14505 27.8033 6.29172 27.95H7.35172V26.69ZM5.20172 23.89H7.68172C8.08172 24.13 8.34505 24.4067 8.47172 24.72C8.59839 25.0267 8.66172 25.4467 8.66172 25.98V27.48C8.66172 28.0333 8.67505 28.54 8.70172 29H7.56172L7.38172 28.64C7.12172 28.88 6.75505 29 6.28172 29H5.65172C5.08505 28.6267 4.80172 28.09 4.80172 27.39C4.80172 26.6833 5.09172 26.1267 5.67172 25.72H6.61172C6.87172 25.72 7.11505 25.8 7.34172 25.96V25.46C7.34172 25.2 7.22839 25.0267 7.00172 24.94H5.20172V23.89ZM11.243 29H10.193C9.89964 28.6267 9.69964 28.2533 9.59297 27.88C9.4863 27.5067 9.43297 27.04 9.43297 26.48V23.89H10.763V26.58C10.763 27.1867 10.883 27.6433 11.123 27.95H12.053V23.89H13.383V29H12.333L12.153 28.64C11.8996 28.88 11.5963 29 11.243 29ZM14.7386 23.89H16.9486V24.94H15.3886L16.3386 26.35C16.7653 26.9567 17.0019 27.3733 17.0486 27.6C17.0753 27.7067 17.0886 27.8167 17.0886 27.93C17.0886 28.4033 16.9119 28.76 16.5586 29H14.0086V27.95H15.8386L14.7686 26.38C14.7219 26.3067 14.6486 26.2033 14.5486 26.07C14.4553 25.9367 14.3819 25.83 14.3286 25.75C14.2753 25.6633 14.2386 25.6 14.2186 25.56C14.1986 25.52 14.1719 25.47 14.1386 25.41C14.1053 25.3433 14.0819 25.2867 14.0686 25.24C14.0419 25.1133 14.0286 25.01 14.0286 24.93C14.0286 24.4433 14.2653 24.0967 14.7386 23.89ZM19.947 24.94H19.197C19.097 25.06 19.0137 25.2267 18.947 25.44C18.887 25.6533 18.857 25.86 18.857 26.06H20.287C20.3004 25.86 20.2737 25.6533 20.207 25.44C20.1404 25.22 20.0537 25.0533 19.947 24.94ZM21.307 27.95V29H18.767C18.3004 28.6867 17.9704 28.3 17.777 27.84C17.5904 27.3733 17.497 26.9033 17.497 26.43C17.497 25.3367 17.9104 24.49 18.737 23.89H20.357C20.8037 24.2167 21.107 24.5633 21.267 24.93C21.427 25.2967 21.507 25.6667 21.507 26.04C21.507 26.4133 21.477 26.7333 21.417 27H18.927C18.947 27.1533 19.0037 27.33 19.097 27.53C19.197 27.7233 19.3037 27.8633 19.417 27.95H21.307ZM22.868 22H25.268V23.2H23.348L23.318 23.26L24.918 26.18C25.2447 26.7667 25.408 27.2133 25.408 27.52C25.408 28.1933 25.1847 28.6867 24.738 29H22.088V27.84H24.158L24.188 27.78L22.388 24.55C22.128 24.0833 21.998 23.7033 21.998 23.41C21.998 22.7167 22.288 22.2467 22.868 22ZM26.1597 26.77V24.94H25.4697V23.89H26.1597V22.5H27.4897V23.89H28.3097V24.94H27.4897V27.09C27.4897 27.4967 27.5597 27.7833 27.6997 27.95H28.3097V29H26.8897C26.5364 28.6733 26.323 28.32 26.2497 27.94C26.1897 27.62 26.1597 27.23 26.1597 26.77ZM31.3361 26.69H30.2661C30.1261 26.8633 30.0561 27.08 30.0561 27.34C30.0561 27.6 30.1294 27.8033 30.2761 27.95H31.3361V26.69ZM29.1861 23.89H31.6661C32.0661 24.13 32.3294 24.4067 32.4561 24.72C32.5828 25.0267 32.6461 25.4467 32.6461 25.98V27.48C32.6461 28.0333 32.6594 28.54 32.6861 29H31.5461L31.3661 28.64C31.1061 28.88 30.7394 29 30.2661 29H29.6361C29.0694 28.6267 28.7861 28.09 28.7861 27.39C28.7861 26.6833 29.0761 26.1267 29.6561 25.72H30.5961C30.8561 25.72 31.0994 25.8 31.3261 25.96V25.46C31.3261 25.2 31.2128 25.0267 30.9861 24.94H29.1861V23.89ZM33.6499 26.77V24.94H32.9599V23.89H33.6499V22.5H34.9799V23.89H35.7999V24.94H34.9799V27.09C34.9799 27.4967 35.0499 27.7833 35.1899 27.95H35.7999V29H34.3799C34.0266 28.6733 33.8133 28.32 33.7399 27.94C33.6799 27.62 33.6499 27.23 33.6499 26.77ZM36.4652 29V23.89H37.7852V29H36.4652ZM36.4652 22H37.7852V23.35H36.4652V22ZM41.6829 29H39.5029C38.8362 28.38 38.5029 27.5333 38.5029 26.46C38.5029 25.92 38.5762 25.45 38.7229 25.05C38.8762 24.65 39.1162 24.2633 39.4429 23.89H41.7829C42.1296 24.29 42.3662 24.68 42.4929 25.06C42.6196 25.4333 42.6829 25.9 42.6829 26.46C42.6829 27.5333 42.3496 28.38 41.6829 29ZM40.2129 27.95H40.9729C41.2129 27.4833 41.3329 26.9533 41.3329 26.36C41.3329 25.7667 41.2096 25.2933 40.9629 24.94H40.2129C39.9729 25.28 39.8529 25.7633 39.8529 26.39C39.8529 27.01 39.9729 27.53 40.2129 27.95ZM45.6188 23.89H46.6788C46.9721 24.2633 47.1721 24.6367 47.2788 25.01C47.3854 25.3833 47.4388 25.85 47.4388 26.41V29H46.1088V26.31C46.1088 25.6767 46.0221 25.22 45.8488 24.94H44.7288V29H43.3988V23.89H44.4387L44.6188 24.25C44.7654 24.1167 44.9021 24.0233 45.0288 23.97C45.1621 23.9167 45.3588 23.89 45.6188 23.89Z" fill="white"/>
<path d="M17.272 3.66673C17.2494 3.02856 17.3472 2.41266 17.7497 1.87838C17.761 2.15294 17.7948 2.41637 17.9077 2.6798C18.1296 1.65948 18.6487 0.850641 19.4988 0.249579C19.4273 0.468485 19.3671 0.68739 19.3859 0.906295C19.7132 0.631736 20.0931 0.245869 21.056 0.0640663C21.609 -0.0398209 22.1732 -0.0101389 22.6396 0.101169C24.0878 0.446223 24.9342 1.37379 25.2614 2.78369C25.4608 3.64076 25.2878 4.4533 24.9492 5.2473C24.7536 5.70737 24.4978 6.1526 24.1706 6.5496C24.0954 6.4791 24.0239 6.40861 23.9524 6.34183C22.3425 4.82804 22.9443 5.40684 22.5456 4.95419C22.5042 4.90967 22.508 4.87256 22.5418 4.82062C22.8541 4.31973 22.9857 3.77433 22.918 3.1881C22.8766 2.8245 22.7563 2.48687 22.4929 2.21602C21.9475 1.64835 21.0184 1.65948 20.4805 2.23828C20.0517 2.70206 19.9502 3.25489 20.0705 3.85595C20.0781 3.90418 20.0856 3.95613 20.0705 4.00065C19.9426 4.50896 19.8975 5.02468 19.9765 5.54412C19.9803 5.56267 19.9803 5.58493 19.9803 5.60348C19.9803 5.61461 19.9765 5.62203 19.9727 5.6443C19.1527 5.23617 18.6186 4.59429 18.3478 3.70754C18.0355 4.36797 17.9302 5.02468 18.0995 5.71479C17.5127 5.15083 17.2983 4.44217 17.272 3.66673ZM34.9361 8.23777C34.4997 7.80738 33.9957 7.48087 33.4277 7.25084C32.9462 7.05791 32.4497 6.95773 31.9268 6.98741C31.5507 7.00967 31.1896 7.10243 30.836 7.22487C30.742 7.25826 30.6442 7.28423 30.5464 7.30649C30.362 7.35102 30.2718 7.19147 30.3696 7.05419C30.4899 6.88352 30.4975 6.89836 30.9338 6.60896C30.9564 6.59412 30.9789 6.57928 31.0165 6.55331H30.9225C30.8999 6.55331 30.8774 6.56073 30.851 6.56444C30.1251 6.68688 29.6963 7.13953 29.0117 7.66268C28.6205 7.96321 28.4926 7.80367 28.5603 7.64413C28.6129 7.51427 28.6844 7.39554 28.7521 7.2731C28.7897 7.20632 28.8386 7.14695 28.8838 7.08388C28.8762 7.07646 28.865 7.07275 28.8574 7.06533C27.8418 7.7443 27.1008 8.63848 26.687 9.78495C26.6983 9.79608 26.7134 9.80721 26.7247 9.81834C26.7359 9.79608 26.7435 9.77382 26.7585 9.75526C27.1497 9.30632 27.6161 8.94643 28.1352 8.64961C28.8198 8.25632 29.5458 7.97063 30.3432 7.90013C30.505 7.88529 30.6705 7.89642 30.836 7.89642C30.7683 7.9224 30.7043 7.92982 30.6366 7.93724C29.9408 8.02628 29.3013 8.27116 28.6995 8.62363C27.5635 9.28777 26.6494 10.1894 25.8746 11.2357C25.8633 11.2505 25.8595 11.2691 25.8482 11.2839C26.3936 11.4805 26.751 11.9258 27.2061 12.2337C27.2137 12.23 27.2174 12.2263 27.2212 12.2189L27.2663 12.1187C27.7252 11.1206 28.2819 10.1782 29.0229 9.35456C29.6511 8.65703 30.4523 8.41586 31.3739 8.6125C31.5958 8.66074 31.8027 8.77576 32.0209 8.8648C32.1074 8.81286 32.2127 8.74607 32.3218 8.69042C32.6378 8.53088 32.9763 8.4307 33.3261 8.3565C33.8791 8.24148 34.4358 8.17469 35 8.30826V8.28971C34.9812 8.27487 34.9549 8.26003 34.9361 8.23777ZM26.0814 14.7493C24.5994 13.5249 25.2238 14.0258 24.4753 13.4284C24.4452 13.4618 24.4753 13.421 24.4038 13.5397C23.9825 14.2484 23.4446 14.8495 22.7487 15.3058C22.3613 15.5581 21.94 15.7436 21.4661 15.7436C20.6536 15.7436 20.0292 15.3911 19.6079 14.7122C19.1565 13.9887 19.1076 13.2021 19.2994 12.3895C19.5928 11.1355 20.4316 10.3415 20.7514 10.0039C20.048 9.77382 19.5101 10.0669 19.006 10.5196C19.0361 10.0039 19.1678 9.54749 19.4499 9.13565C18.5358 9.52894 17.7233 10.0632 17.0124 10.7645C17.0011 10.5493 17.2155 9.14307 17.2231 9.10597C17.2343 9.00579 17.2005 8.90932 17.1102 8.83141C16.1999 9.74784 15.4363 10.7533 15 11.9703C15.2784 11.7514 15.5605 11.5473 15.8877 11.3692C15.5755 12.1966 15.1505 13.3282 15.5943 15.1203C15.7674 15.8252 16.0419 16.4857 16.5008 17.0608C16.6099 17.198 16.7378 17.3168 16.8582 17.4429C16.8657 17.4355 16.8732 17.4318 16.8808 17.4244C16.8281 17.1647 16.798 16.9012 16.8243 16.6118C16.9071 16.7306 16.971 16.8344 17.0463 16.9309C17.5202 17.5245 18.1258 17.9475 18.8217 18.2518C19.7621 18.671 20.7438 18.7452 21.7519 18.5708C23.817 18.2109 25.1636 16.7677 26.1153 14.9051C26.1529 14.8383 26.1379 14.7975 26.0814 14.7493ZM32.5513 13.0277C32.1939 12.9127 31.7162 12.8719 31.4717 12.9201C31.8441 13.0685 32.0021 13.165 32.1789 13.3653C32.6528 13.8996 32.5701 14.6528 31.9757 15.0572C31.5356 15.3578 31.0391 15.4468 30.5125 15.3949C30.4674 15.3911 30.426 15.38 30.3997 15.3726C30.505 15.2353 30.6254 15.1129 30.7043 14.9719C31.0579 14.3486 30.9075 13.4099 30.3771 12.8904C30.2981 12.8125 30.2041 12.7457 30.1138 12.6715C30.1025 12.7198 30.11 12.7494 30.1175 12.7754C30.2755 13.3913 29.8129 13.9775 29.1847 13.9553C28.8988 13.9441 28.6618 13.8143 28.4474 13.6399C27.7139 13.0426 26.9767 12.4489 26.2469 11.8478C26.025 11.666 25.7768 11.5473 25.4909 11.5251C25.3178 11.5102 25.1411 11.5028 24.968 11.4917C24.7461 11.4768 24.637 11.3878 24.5768 11.18C24.543 11.0539 24.5204 10.9277 24.4941 10.8016C24.4377 10.501 24.2609 10.3192 23.9562 10.2747C23.7907 10.2487 23.6214 10.2376 23.4559 10.219C22.9669 10.1671 22.7111 9.94449 22.6058 9.46586C22.4177 9.87399 22.5456 10.297 22.8804 10.5752C23.0497 10.7162 23.2302 10.8461 23.3995 10.9908C23.5725 11.1318 23.6778 11.3136 23.6966 11.5399C23.7117 11.7143 23.7267 11.8924 23.7643 12.063C23.8471 12.4563 24.0991 12.7457 24.4038 12.9943C25.0244 13.5026 25.6451 14.0072 26.2658 14.5192C26.9391 15.0758 26.7886 15.7362 26.7547 16.597C26.7209 17.4466 27.2137 18.1887 28.0149 18.4966C28.0525 18.5115 28.0901 18.5189 28.1503 18.5374C27.5597 17.8622 27.7704 16.9012 28.1766 16.597C28.1879 16.6786 28.1916 16.7565 28.2105 16.8344C28.564 18.4707 29.9182 19.2164 31.4077 18.9456C32.0096 18.838 32.5588 18.6154 33.0214 18.2109C33.0967 18.1442 33.1606 18.0588 33.2434 17.9698C32.5174 18.1405 31.8967 17.9735 31.3288 17.5765C31.3551 17.5654 31.3777 17.5654 31.4002 17.5654C32.2014 17.6321 32.9274 17.4392 33.5443 16.9198C34.2778 16.3039 34.5449 15.3281 34.1988 14.471C33.8866 13.7252 33.3111 13.2726 32.5513 13.0277ZM17.9077 6.64978C17.7083 6.30843 17.4111 6.07098 17.0764 5.85949C17.5917 5.84094 18.0769 5.86691 18.5659 5.99677C18.3026 5.54412 18.2462 5.08034 18.3778 4.5609C18.5772 5.00242 18.8932 5.30666 19.2656 5.55525C20.0066 6.045 20.6084 6.28246 21.0222 6.67575C21.1501 6.79819 21.2592 6.93918 21.3833 7.08017C21.3532 7.00225 21.3306 6.92805 21.3005 6.85755C21.1125 6.46426 20.8115 6.16744 20.4504 5.92999C20.3827 5.88546 20.3451 5.83723 20.3226 5.76302C20.1984 5.29924 20.2097 4.83175 20.2962 4.36797C20.3338 4.1639 20.4015 3.96355 20.4655 3.7632C20.4956 3.67415 20.552 3.59252 20.6159 3.51832C20.6385 3.77433 20.6159 4.46443 21.3532 5.22504C21.7595 5.6443 22.1958 6.03758 22.6284 6.43829C22.9669 6.75366 23.3167 7.0579 23.5875 7.43264C23.6289 7.49201 23.6703 7.55508 23.7305 7.60702C23.5424 7.12469 23.1964 6.71285 22.8202 6.35296C22.4591 6.0079 22.0905 5.67027 21.7218 5.33634C21.5977 5.22504 21.5488 5.08776 21.53 4.93193C21.4849 4.54606 21.53 4.16761 21.6917 3.81143C21.7106 3.77433 21.7331 3.73722 21.7632 3.68899C21.782 3.84482 21.7858 3.9821 21.8159 4.11938C21.9964 4.97645 22.5832 5.4662 23.6703 6.47539C24.0465 6.82416 24.3963 7.18776 24.6333 7.64784C24.8138 7.99289 24.9078 8.35279 24.8477 8.74607C24.8439 8.76833 24.8665 8.80915 24.889 8.82028C25.1222 8.91675 25.2652 9.07629 25.2539 9.35085C25.5435 9.25438 25.7241 9.05403 25.8708 8.81286C26.0288 9.56233 25.5285 10.6791 24.8477 10.9908C24.8627 10.8238 25.0357 10.1226 24.227 9.96304C23.9712 9.91481 23.7455 9.91481 23.3656 9.88512C23.5424 9.5512 23.7568 9.12081 23.3844 9.05403C22.4478 8.88335 21.3983 9.12452 21.2103 9.2247C21.5187 9.23954 21.8234 9.2618 22.0942 9.34714C22.019 9.5883 21.9438 9.81834 21.8761 10.0484C21.8046 10.2895 21.955 10.5901 22.2259 10.4046C22.271 10.3712 22.3124 10.3341 22.35 10.3044C22.2334 10.9685 22.2409 10.8943 22.2447 10.9834C22.256 11.3618 22.602 11.2728 22.8352 11.2542C22.7412 11.692 21.7256 12.2671 21.1275 12.2115C21.3908 12.0371 21.6052 11.8293 21.7256 11.5473C21.4811 11.577 21.2404 11.6067 21.0034 11.6364L20.9921 11.603C21.1689 11.4768 21.293 11.3136 21.3758 11.1169C21.703 10.3341 21.2404 9.70703 20.4354 9.63654C20.0931 9.60685 19.7658 9.66622 19.4612 9.8406C19.6944 9.2618 20.1081 8.85367 20.6874 8.56056C20.1157 8.40102 20.3526 8.46038 19.7621 8.32681C20.3113 7.98176 20.8981 7.83706 21.5112 7.78512C21.3156 7.66639 19.7019 7.65155 18.8706 8.56056C19.1678 8.6125 19.4536 8.66445 19.7433 8.71639C18.848 8.97611 18.0882 9.44731 17.3961 10.0372C17.4375 9.85915 17.4976 9.68477 17.5202 9.50668C17.5428 9.33971 17.5503 9.16533 17.524 9.00208C17.4676 8.65332 17.1892 8.44183 16.783 8.39731C16.4858 8.36392 16.1962 8.40102 15.9065 8.44554C15.8727 8.44925 15.8426 8.45667 15.7974 8.44554C16.3918 7.89642 17.1516 7.64042 17.7948 7.20261C18.0205 7.03564 18.0506 6.89836 17.9077 6.64978ZM22.7374 7.64413C22.8616 8.23777 23.2114 8.59024 23.6327 8.54572C23.4597 8.12646 23.1775 7.82222 22.7374 7.64413Z" fill="white"/>
</svg>
