<svg width="192" height="26" viewBox="0 0 192 26" fill="none" xmlns="http://www.w3.org/2000/svg">
<path d="M25.588 5.12V14.12H28.792C30.112 13.04 30.772 11.456 30.772 9.368C30.772 8.48 30.592 7.64 30.232 6.848C29.896 6.056 29.488 5.48 29.008 5.12H25.588ZM20.728 26V0.799998H30.484C32.116 1.52 33.4 2.624 34.336 4.112C35.296 5.6 35.776 7.34 35.776 9.332C35.776 11.3 35.284 13.124 34.3 14.804C33.316 16.484 31.864 17.672 29.944 18.368H25.588V26H20.728ZM45.4662 17.684H41.6142C41.1102 18.308 40.8582 19.088 40.8582 20.024C40.8582 20.96 41.1222 21.692 41.6502 22.22H45.4662V17.684ZM37.7262 7.604H46.6542C48.0942 8.468 49.0422 9.464 49.4982 10.592C49.9542 11.696 50.1822 13.208 50.1822 15.128V20.528C50.1822 22.52 50.2302 24.344 50.3262 26H46.2222L45.5742 24.704C44.6382 25.568 43.3182 26 41.6142 26H39.3462C37.3062 24.656 36.2862 22.724 36.2862 20.204C36.2862 17.66 37.3302 15.656 39.4182 14.192H42.8022C43.7382 14.192 44.6142 14.48 45.4302 15.056V13.256C45.4302 12.32 45.0222 11.696 44.2062 11.384H37.7262V7.604ZM59.4747 26H55.6947C54.6387 24.656 53.9187 23.312 53.5347 21.968C53.1507 20.624 52.9587 18.944 52.9587 16.928V7.604H57.7467V17.288C57.7467 19.472 58.1787 21.116 59.0427 22.22H62.3907V7.604H67.1787V26H63.3987L62.7507 24.704C61.8387 25.568 60.7467 26 59.4747 26ZM72.0589 7.604H80.0149V11.384H74.3989L77.8189 16.46C79.3549 18.644 80.2069 20.144 80.3749 20.96C80.4709 21.344 80.5189 21.74 80.5189 22.148C80.5189 23.852 79.8829 25.136 78.6109 26H69.4309V22.22H76.0189L72.1669 16.568C71.9989 16.304 71.7349 15.932 71.3749 15.452C71.0389 14.972 70.7749 14.588 70.5829 14.3C70.3909 13.988 70.2589 13.76 70.1869 13.616C70.1149 13.472 70.0189 13.292 69.8989 13.076C69.7789 12.836 69.6949 12.632 69.6469 12.464C69.5509 12.008 69.5029 11.636 69.5029 11.348C69.5029 9.596 70.3549 8.348 72.0589 7.604ZM90.8093 11.384H88.1093C87.7493 11.816 87.4493 12.416 87.2093 13.184C86.9933 13.952 86.8853 14.696 86.8853 15.416H92.0333C92.0813 14.696 91.9853 13.952 91.7453 13.184C91.5053 12.392 91.1933 11.792 90.8093 11.384ZM95.7053 22.22V26H86.5613C84.8813 24.872 83.6933 23.48 82.9973 21.824C82.3253 20.144 81.9893 18.452 81.9893 16.748C81.9893 12.812 83.4773 9.764 86.4533 7.604H92.2853C93.8933 8.78 94.9853 10.028 95.5613 11.348C96.1373 12.668 96.4253 14 96.4253 15.344C96.4253 16.688 96.3173 17.84 96.1013 18.8H87.1373C87.2093 19.352 87.4133 19.988 87.7493 20.708C88.1093 21.404 88.4933 21.908 88.9013 22.22H95.7053ZM101.325 0.799998H109.965V5.12H103.053L102.945 5.336L108.705 15.848C109.881 17.96 110.469 19.568 110.469 20.672C110.469 23.096 109.665 24.872 108.057 26H98.517V21.824H105.969L106.077 21.608L99.597 9.98C98.661 8.3 98.193 6.932 98.193 5.876C98.193 3.38 99.237 1.688 101.325 0.799998ZM113.175 17.972V11.384H110.691V7.604H113.175V2.6H117.963V7.604H120.915V11.384H117.963V19.124C117.963 20.588 118.215 21.62 118.719 22.22H120.915V26H115.803C114.531 24.824 113.763 23.552 113.499 22.184C113.283 21.032 113.175 19.628 113.175 17.972ZM131.81 17.684H127.958C127.454 18.308 127.202 19.088 127.202 20.024C127.202 20.96 127.466 21.692 127.994 22.22H131.81V17.684ZM124.07 7.604H132.998C134.438 8.468 135.386 9.464 135.842 10.592C136.298 11.696 136.526 13.208 136.526 15.128V20.528C136.526 22.52 136.574 24.344 136.67 26H132.566L131.918 24.704C130.982 25.568 129.662 26 127.958 26H125.69C123.65 24.656 122.63 22.724 122.63 20.204C122.63 17.66 123.674 15.656 125.762 14.192H129.146C130.082 14.192 130.958 14.48 131.774 15.056V13.256C131.774 12.32 131.366 11.696 130.55 11.384H124.07V7.604ZM140.14 17.972V11.384H137.656V7.604H140.14V2.6H144.928V7.604H147.88V11.384H144.928V19.124C144.928 20.588 145.18 21.62 145.684 22.22H147.88V26H142.768C141.496 24.824 140.728 23.552 140.464 22.184C140.248 21.032 140.14 19.628 140.14 17.972ZM150.275 26V7.604H155.027V26H150.275ZM150.275 0.799998H155.027V5.66H150.275V0.799998ZM169.058 26H161.21C158.81 23.768 157.61 20.72 157.61 16.856C157.61 14.912 157.874 13.22 158.402 11.78C158.954 10.34 159.818 8.948 160.994 7.604H169.418C170.666 9.044 171.518 10.448 171.974 11.816C172.43 13.16 172.658 14.84 172.658 16.856C172.658 20.72 171.458 23.768 169.058 26ZM163.766 22.22H166.502C167.366 20.54 167.798 18.632 167.798 16.496C167.798 14.36 167.354 12.656 166.466 11.384H163.766C162.902 12.608 162.47 14.348 162.47 16.604C162.47 18.836 162.902 20.708 163.766 22.22ZM183.228 7.604H187.044C188.1 8.948 188.82 10.292 189.204 11.636C189.588 12.98 189.78 14.66 189.78 16.676V26H184.992V16.316C184.992 14.036 184.68 12.392 184.056 11.384H180.024V26H175.236V7.604H178.979L179.628 8.9C180.156 8.42 180.648 8.084 181.104 7.892C181.584 7.7 182.292 7.604 183.228 7.604Z" fill="white"/>
<path d="M1.95 2C0.873437 2 0 3.28776 0 4.875V22.125C0 23.7122 0.873437 25 1.95 25H3.25C4.32656 25 5.2 23.7122 5.2 22.125V4.875C5.2 3.28776 4.32656 2 3.25 2H1.95ZM9.75 2C8.67344 2 7.8 3.28776 7.8 4.875V22.125C7.8 23.7122 8.67344 25 9.75 25H11.05C12.1266 25 13 23.7122 13 22.125V4.875C13 3.28776 12.1266 2 11.05 2H9.75Z" fill="white"/>
</svg>
